<svg
  clip-rule="evenodd"
  fill-rule="evenodd"
  stroke-linejoin="round"
  stroke-miterlimit="2"
  viewBox="0 0 411 216"
  xmlns="http://www.w3.org/2000/svg"
>
 

  <g transform="matrix(.491001 0 0 .228132 608.522 -.234)">
    <path d="m-1239.35 2.083h836.691v942.735h-836.691z" fill="none" />
    <g fill-rule="nonzero">
      <path
        d="m0 16.022h7.663v13.934c-1.486 1.068-3.379 1.904-5.677 2.507s-4.657.905-7.071.905c-3.065 0-5.979-.451-8.743-1.358-2.764-.905-5.19-2.368-7.279-4.389-2.09-2.019-3.762-4.643-5.016-7.871s-1.881-7.141-1.881-11.739c0-4.782.707-8.789 2.124-12.017s3.239-5.827 5.47-7.802c2.228-1.974 4.712-3.389 7.453-4.25 2.74-.858 5.435-1.288 8.081-1.288 2.787 0 5.144.233 7.071.696 1.926.465 3.518 1 4.772 1.602v14.49h-7.663v-7.941c-1.441-.232-2.926-.348-4.458-.348-1.812 0-3.495.337-5.052 1.01-1.556.673-2.914 1.707-4.075 3.1-1.16 1.393-2.067 3.146-2.717 5.259-.65 2.114-.975 4.61-.975 7.489 0 2.508.302 4.796.906 6.862.603 2.066 1.486 3.843 2.647 5.33 1.16 1.486 2.578 2.636 4.249 3.447 1.672.813 3.576 1.219 5.712 1.219 1.533 0 3.02-.139 4.459-.417z"
        fill="#47cab0"
        transform="matrix(2.03665 0 0 4.38343 -1174.97 786.076)"
      />
      <path
        d="m0 0c0 2.368.104 4.574.314 6.617.209 2.045.603 3.821 1.184 5.331.58 1.509 1.417 2.705 2.508 3.587s2.544 1.323 4.353 1.323c1.626 0 2.973-.336 4.042-1.01 1.068-.672 1.926-1.706 2.578-3.1.65-1.393 1.101-3.145 1.358-5.259.254-2.113.384-4.61.384-7.489 0-2.275-.082-4.435-.244-6.479-.164-2.042-.536-3.832-1.117-5.364-.58-1.533-1.427-2.752-2.542-3.657-1.114-.905-2.6-1.358-4.459-1.358-3.251 0-5.457 1.416-6.617 4.249-1.162 2.834-1.742 7.036-1.742 12.609m-10.031 0c0-3.947.371-7.5 1.114-10.658.743-3.159 1.882-5.817 3.414-7.977 1.532-2.159 3.449-3.82 5.747-4.981 2.299-1.16 5.004-1.741 8.115-1.741 3.345 0 6.177.626 8.499 1.881 2.323 1.254 4.215 2.994 5.678 5.224 1.463 2.229 2.531 4.901 3.205 8.011.672 3.113 1.01 6.526 1.01 10.241 0 7.942-1.522 14.154-4.563 18.635-3.042 4.482-7.652 6.722-13.829 6.722-3.342 0-6.188-.626-8.533-1.88-2.346-1.254-4.25-2.996-5.713-5.226-1.463-2.229-2.519-4.899-3.168-8.01-.651-3.112-.976-6.525-.976-10.241"
        fill="#47cab0"
        transform="matrix(2.03665 0 0 4.38343 -1120.45 821.193)"
      />
      <path
        d="m0-33.229c-.883 0-1.741.035-2.577.104-.837.07-1.463.129-1.881.173v32.674c.184.046.463.081.835.105.371.023.755.046 1.149.068.395.025.779.047 1.151.07.371.025.673.035.905.035 2.693 0 4.842-.499 6.444-1.499 1.602-.997 2.797-2.309 3.587-3.935.79-1.625 1.3-3.459 1.533-5.503.232-2.043.349-4.086.349-6.131 0-1.765-.104-3.598-.314-5.503-.209-1.904-.697-3.646-1.463-5.224-.767-1.58-1.916-2.879-3.448-3.901-1.534-1.021-3.623-1.533-6.27-1.533m-14.002-7.803c.417-.046 1.149-.116 2.194-.209 1.044-.092 2.229-.175 3.553-.244s2.693-.127 4.11-.173c1.416-.047 2.682-.07 3.796-.07 4.32 0 7.896.626 10.728 1.88 2.833 1.254 5.074 2.985 6.724 5.191 1.647 2.206 2.797 4.806 3.448 7.802.649 2.995.975 6.258.975 9.787 0 3.205-.326 6.34-.975 9.405-.651 3.066-1.823 5.794-3.518 8.185-1.696 2.394-4.04 4.32-7.036 5.783s-6.839 2.194-11.529 2.194c-.743 0-1.697-.024-2.857-.069-1.161-.047-2.345-.105-3.553-.174-1.207-.07-2.369-.14-3.483-.21-1.114-.069-1.974-.151-2.577-.244z"
        fill="#47cab0"
        transform="matrix(2.03665 0 0 4.38343 -1018.39 894.175)"
      />
      <path
        d="m0-48.765h31.975v8.499h-22.432v11.355h20.689v8.499h-20.689v11.913h22.78v8.499h-32.323z"
        fill="#47cab0"
        transform="matrix(2.03665 0 0 4.38343 -954.69 928.07)"
      />
      <path
        d="m0 16.021h7.663v13.934c-1.486 1.068-3.379 1.905-5.677 2.507-2.298.603-4.657.906-7.071.906-3.065 0-5.979-.452-8.743-1.359-2.764-.905-5.19-2.368-7.279-4.388-2.09-2.02-3.762-4.643-5.016-7.871s-1.881-7.141-1.881-11.74c0-4.782.707-8.789 2.124-12.017 1.417-3.227 3.239-5.826 5.47-7.802 2.228-1.973 4.712-3.389 7.453-4.249 2.74-.859 5.435-1.289 8.081-1.289 2.787 0 5.144.233 7.071.696 1.926.466 3.518 1 4.772 1.603v14.49h-7.663v-7.942c-1.441-.232-2.926-.348-4.458-.348-1.812 0-3.495.338-5.052 1.01-1.556.673-2.914 1.707-4.075 3.1-1.16 1.394-2.067 3.147-2.717 5.259-.65 2.114-.975 4.611-.975 7.489 0 2.508.302 4.796.906 6.863.603 2.066 1.486 3.842 2.647 5.33 1.16 1.486 2.578 2.635 4.249 3.447 1.672.813 3.576 1.219 5.712 1.219 1.533 0 3.02-.14 4.459-.417z"
        fill="#fff"
        transform="matrix(2.03665 0 0 4.38343 -769.41 777.651)"
      />
      <path
        d="m0 7.941h-15.744v20.412h-9.543v-48.765h9.543v19.854h15.744v-19.854h9.544v48.765h-9.544z"
        fill="#fff"
        transform="matrix(2.03665 0 0 4.38343 -681.826 795.36)"
      />
      <path
        d="m0-48.765h31.975v8.499h-22.432v11.355h20.689v8.499h-20.689v11.913h22.78v8.499h-32.323z"
        fill="#fff"
        transform="matrix(2.03665 0 0 4.38343 -638.511 919.645)"
      />
      <path
        d="m0-48.765h30.93v8.499h-21.387v12.052h19.854v8.499h-19.854v19.715h-9.543z"
        fill="#fff"
        transform="matrix(2.03665 0 0 4.38343 -552.335 919.645)"
      />
      <path
        d="m0 16.859h7.662v6.896c.14.047.279.095.419.14 1.068.465 2.239.848 3.519 1.149 1.276.302 2.634.453 4.075.453 2.599 0 4.62-.523 6.06-1.568 1.439-1.044 2.16-2.449 2.16-4.215 0-1.577-.592-2.855-1.777-3.831-1.184-.974-2.647-1.834-4.389-2.577-1.741-.743-3.646-1.486-5.712-2.229-2.067-.742-3.971-1.683-5.713-2.822-1.741-1.136-3.203-2.565-4.389-4.284-1.184-1.717-1.775-3.947-1.775-6.687 0-2.091.406-4.006 1.218-5.747.813-1.742 1.952-3.24 3.413-4.494 1.463-1.254 3.216-2.229 5.261-2.926 2.043-.696 4.32-1.045 6.826-1.045 2.833 0 5.62.256 8.36.766 2.741.512 4.922 1.209 6.55 2.09v14.142h-7.664v-7.733c-.14 0-.279-.023-.418-.07-1.023-.277-2.124-.498-3.309-.661-1.185-.162-2.357-.244-3.519-.244-2.228 0-3.982.442-5.258 1.323-1.28.883-1.916 2.068-1.916 3.554 0 1.533.592 2.786 1.776 3.762 1.185.974 2.647 1.857 4.389 2.646 1.742.791 3.645 1.58 5.713 2.368 2.065.791 3.97 1.755 5.711 2.892 1.743 1.139 3.205 2.567 4.39 4.284 1.184 1.72 1.775 3.878 1.775 6.48 0 2.507-.464 4.702-1.393 6.583-.929 1.88-2.229 3.459-3.9 4.737-1.673 1.277-3.648 2.228-5.922 2.855-2.277.628-4.737.941-7.385.941-1.766 0-3.401-.14-4.91-.417-1.511-.28-2.905-.628-4.18-1.046-1.279-.417-2.404-.858-3.38-1.323-.974-.464-1.765-.86-2.368-1.185z"
        fill="#fff"
        transform="matrix(2.03665 0 0 4.38343 -476.034 775.814)"
      />
      <path
        d="m0-79.136v22.31c0 6.139-4.994 11.132-11.133 11.132v12.251c6.139 0 11.133 4.994 11.133 11.133v22.309c0 12.895 10.489 23.384 23.383 23.384v-12.25c-6.139 0-11.133-4.995-11.133-11.134v-22.309c0-6.827-2.941-12.98-7.623-17.258 4.682-4.279 7.623-10.431 7.623-17.258v-22.31c0-6.139 4.994-11.133 11.133-11.133v-12.25c-12.894 0-23.383 10.489-23.383 23.383"
        fill="#47cab0"
        transform="matrix(2.03665 0 0 4.38343 -1041.76 467.924)"
      />
      <path
        d="m0-34.516v-22.31c0-12.894-10.489-23.383-23.383-23.383v12.25c6.139 0 11.133 4.994 11.133 11.133v22.31c0 6.827 2.941 12.979 7.623 17.258-4.682 4.278-7.623 10.43-7.623 17.258v22.309c0 6.139-4.994 11.134-11.133 11.134v12.25c12.894 0 23.383-10.489 23.383-23.384v-22.309c0-6.139 4.994-11.133 11.133-11.133v-12.251c-6.139 0-11.133-4.993-11.133-11.132"
        fill="#47cab0"
        transform="matrix(2.03665 0 0 4.38343 -644.142 370.13)"
      />
      <path
        d="m0 59.809c27.495 0 39.947-9.93 39.947-12.944v-36.665c-4.654-1.204-7.945-3.038-11.189-5.337-1.639.338-3.362.516-5.127.532l-.368.001c-5.902 0-10.753-1.229-14.426-3.652-4.212 1.615-8.879 2.199-13.803 1.748-4.75-.44-8.775-1.613-11.976-3.492-3.453 4.996-8.573 8.68-15.027 11.021-2.519.914-5.362 1.728-7.978 1.874v33.97c0 3.014 12.452 12.944 39.947 12.944"
        fill="#fff"
        transform="matrix(2.03665 0 0 4.38343 -843.634 305.63)"
      />
      <path
        d="m0 19.998c-.711-12.014-9.027-18.301-14.477-19.426-.234 5.396-2.955 9.58-5.949 11.357.036-.119 3.535-11.97-3.288-19.036-6.265-6.489-14.288-5.825-17.313-5.278.056 3.231-1.161 6.521-3.17 8.446 0-4.767-2.709-11.934-7.243-15.678-3.692-3.049-9.647-6.845-19.686-5.693-16.092 1.847-20.169 16.475-20.716 20.935l-3.532-1.553c-3.315-1.472-6.844-2.199-10.372-2.199-4.995 0-10.938 1.404-15.395 4.161-7.465 4.619-12.153 11.597-12.747 20.937-.651 10.255 3.491 18.009 11.284 23.91 5.773 4.369 13.746 5.579 21.891 3.308 6.859-1.914 11.803-6.285 13.922-12.305 1.865-5.299 1.958-12.394.227-17.256 5.161 2.35 8.278 12.099 5.725 19.35-.031.089-.064.176-.098.263 1.778 1.1 4.819 2.393 9.654 2.84 6.513.604 12.344-1.014 16.408-4.562 5.193-4.531 8.226-10.966 8.538-18.118 3.769 6.643 1.35 17.865-4.39 22.872-.29.253-.589.502-.895.743 2.172.653 4.964.974 8.299.942 11.761-.103 18.366-10.067 20.11-13.119.624 3.984-1.016 11.508-7.067 15.622 5.191 2.409 13.629 1.902 19.745-1.103 7.781-3.822 11.01-12.338 10.535-20.36"
        fill="#fff"
        transform="matrix(2.03665 0 0 4.38343 -707.385 130.851)"
      />
      <path
        d="m0 59.809c27.495 0 39.947-9.93 39.947-12.944v-36.665c-4.654-1.204-7.945-3.038-11.189-5.337-1.639.338-3.362.516-5.127.532l-.368.001c-5.902 0-10.753-1.229-14.426-3.652-4.212 1.615-8.879 2.199-13.803 1.748-4.75-.44-8.775-1.613-11.976-3.492-3.453 4.996-8.573 8.68-15.027 11.021-2.519.914-5.362 1.728-7.978 1.874v33.97c0 3.014 12.452 12.944 39.947 12.944"
        fill="#fff"
        transform="matrix(2.03665 0 0 4.38343 -843.634 305.63)"
      />
      <path
        d="m0 19.998c-.711-12.014-9.027-18.301-14.477-19.426-.234 5.396-2.955 9.58-5.949 11.357.036-.119 3.535-11.97-3.288-19.036-6.265-6.489-14.288-5.825-17.313-5.278.056 3.231-1.161 6.521-3.17 8.446 0-4.767-2.709-11.934-7.243-15.678-3.692-3.049-9.647-6.845-19.686-5.693-16.092 1.847-20.169 16.475-20.716 20.935l-3.532-1.553c-3.315-1.472-6.844-2.199-10.372-2.199-4.995 0-10.938 1.404-15.395 4.161-7.465 4.619-12.153 11.597-12.747 20.937-.651 10.255 3.491 18.009 11.284 23.91 5.773 4.369 13.746 5.579 21.891 3.308 6.859-1.914 11.803-6.285 13.922-12.305 1.865-5.299 1.958-12.394.227-17.256 5.161 2.35 8.278 12.099 5.725 19.35-.031.089-.064.176-.098.263 1.778 1.1 4.819 2.393 9.654 2.84 6.513.604 12.344-1.014 16.408-4.562 5.193-4.531 8.226-10.966 8.538-18.118 3.769 6.643 1.35 17.865-4.39 22.872-.29.253-.589.502-.895.743 2.172.653 4.964.974 8.299.942 11.761-.103 18.366-10.067 20.11-13.119.624 3.984-1.016 11.508-7.067 15.622 5.191 2.409 13.629 1.902 19.745-1.103 7.781-3.822 11.01-12.338 10.535-20.36"
        fill="#fff"
        transform="matrix(2.03665 0 0 4.38343 -707.385 130.851)"
      />
    </g>
  </g>
</svg>
