<?xml version="1.0" encoding="UTF-8" standalone="no"?>
<!DOCTYPE svg PUBLIC "-//W3C//DTD SVG 1.1//EN" "http://www.w3.org/Graphics/SVG/1.1/DTD/svg11.dtd">
<svg width="100%" height="100%" viewBox="0 0 453 157" version="1.1" xmlns="http://www.w3.org/2000/svg" xmlns:xlink="http://www.w3.org/1999/xlink" xml:space="preserve" xmlns:serif="http://www.serif.com/" style="fill-rule:evenodd;clip-rule:evenodd;stroke-linejoin:round;stroke-miterlimit:2;">
    <g transform="matrix(1,0,0,1,-118,-796)">
        <g id="Artboard3" transform="matrix(0.59962,0,0,0.269393,106.619,595.988)">
            <rect x="19.529" y="745.666" width="753.378" height="579.257"/>
            <g transform="matrix(1.66772,0,0,3.71205,460.781,886.388)">
                <path d="M0,16.022L7.663,16.022L7.663,29.956C6.177,31.024 4.284,31.86 1.986,32.463C-0.312,33.066 -2.671,33.368 -5.085,33.368C-8.15,33.368 -11.064,32.917 -13.828,32.01C-16.592,31.105 -19.018,29.642 -21.107,27.621C-23.197,25.602 -24.869,22.978 -26.123,19.75C-27.377,16.522 -28.004,12.609 -28.004,8.011C-28.004,3.229 -27.297,-0.778 -25.88,-4.006C-24.463,-7.234 -22.641,-9.833 -20.41,-11.808C-18.182,-13.782 -15.698,-15.197 -12.957,-16.058C-10.217,-16.916 -7.522,-17.346 -4.876,-17.346C-2.089,-17.346 0.268,-17.113 2.195,-16.65C4.121,-16.185 5.713,-15.65 6.967,-15.048L6.967,-0.558L-0.696,-0.558L-0.696,-8.499C-2.137,-8.731 -3.622,-8.847 -5.154,-8.847C-6.966,-8.847 -8.649,-8.51 -10.206,-7.837C-11.762,-7.164 -13.12,-6.13 -14.281,-4.737C-15.441,-3.344 -16.348,-1.591 -16.998,0.522C-17.648,2.636 -17.973,5.132 -17.973,8.011C-17.973,10.519 -17.671,12.807 -17.067,14.873C-16.464,16.939 -15.581,18.716 -14.42,20.203C-13.26,21.689 -11.842,22.839 -10.171,23.65C-8.499,24.463 -6.595,24.869 -4.459,24.869C-2.926,24.869 -1.439,24.73 0,24.452L0,16.022Z" style="fill:rgb(71,202,176);fill-rule:nonzero;"/>
            </g>
            <g transform="matrix(1.66772,0,0,3.71205,505.428,916.127)">
                <path d="M0,0C0,2.368 0.104,4.574 0.314,6.617C0.523,8.662 0.917,10.438 1.498,11.948C2.078,13.457 2.915,14.653 4.006,15.535C5.097,16.417 6.55,16.858 8.359,16.858C9.985,16.858 11.332,16.522 12.401,15.848C13.469,15.176 14.327,14.142 14.979,12.748C15.629,11.355 16.08,9.603 16.337,7.489C16.591,5.376 16.721,2.879 16.721,0C16.721,-2.275 16.639,-4.435 16.477,-6.479C16.313,-8.521 15.941,-10.311 15.36,-11.843C14.78,-13.376 13.933,-14.595 12.818,-15.5C11.704,-16.405 10.218,-16.858 8.359,-16.858C5.108,-16.858 2.902,-15.442 1.742,-12.609C0.58,-9.775 0,-5.573 0,0M-10.031,0C-10.031,-3.947 -9.66,-7.5 -8.917,-10.658C-8.174,-13.817 -7.035,-16.475 -5.503,-18.635C-3.971,-20.794 -2.054,-22.455 0.244,-23.616C2.543,-24.776 5.248,-25.357 8.359,-25.357C11.704,-25.357 14.536,-24.731 16.858,-23.476C19.181,-22.222 21.073,-20.482 22.536,-18.252C23.999,-16.023 25.067,-13.351 25.741,-10.241C26.413,-7.128 26.751,-3.715 26.751,0C26.751,7.942 25.229,14.154 22.188,18.635C19.146,23.117 14.536,25.357 8.359,25.357C5.017,25.357 2.171,24.731 -0.174,23.477C-2.52,22.223 -4.424,20.481 -5.887,18.251C-7.35,16.022 -8.406,13.352 -9.055,10.241C-9.706,7.129 -10.031,3.716 -10.031,0" style="fill:rgb(71,202,176);fill-rule:nonzero;"/>
            </g>
            <g transform="matrix(1.66772,0,0,3.71205,588.997,977.93)">
                <path d="M0,-33.229C-0.883,-33.229 -1.741,-33.194 -2.577,-33.125C-3.414,-33.055 -4.04,-32.996 -4.458,-32.952L-4.458,-0.278C-4.274,-0.232 -3.995,-0.197 -3.623,-0.173C-3.252,-0.15 -2.868,-0.127 -2.474,-0.105C-2.079,-0.08 -1.695,-0.058 -1.323,-0.035C-0.952,-0.01 -0.65,0 -0.418,0C2.275,0 4.424,-0.499 6.026,-1.499C7.628,-2.496 8.823,-3.808 9.613,-5.434C10.403,-7.059 10.913,-8.893 11.146,-10.937C11.378,-12.98 11.495,-15.023 11.495,-17.068C11.495,-18.833 11.391,-20.666 11.181,-22.571C10.972,-24.475 10.484,-26.217 9.718,-27.795C8.951,-29.375 7.802,-30.674 6.27,-31.696C4.736,-32.717 2.647,-33.229 0,-33.229M-14.002,-41.032C-13.585,-41.078 -12.853,-41.148 -11.808,-41.241C-10.764,-41.333 -9.579,-41.416 -8.255,-41.485C-6.931,-41.554 -5.562,-41.612 -4.145,-41.658C-2.729,-41.705 -1.463,-41.728 -0.349,-41.728C3.971,-41.728 7.547,-41.102 10.379,-39.848C13.212,-38.594 15.453,-36.863 17.103,-34.657C18.75,-32.451 19.9,-29.851 20.551,-26.855C21.2,-23.86 21.526,-20.597 21.526,-17.068C21.526,-13.863 21.2,-10.728 20.551,-7.663C19.9,-4.597 18.728,-1.869 17.033,0.522C15.337,2.916 12.993,4.842 9.997,6.305C7.001,7.768 3.158,8.499 -1.532,8.499C-2.275,8.499 -3.229,8.475 -4.389,8.43C-5.55,8.383 -6.734,8.325 -7.942,8.256C-9.149,8.186 -10.311,8.116 -11.425,8.046C-12.539,7.977 -13.399,7.895 -14.002,7.802L-14.002,-41.032Z" style="fill:rgb(71,202,176);fill-rule:nonzero;"/>
            </g>
            <g transform="matrix(1.66772,0,0,3.71205,638.549,1012.44)">
                <path d="M0,-48.765L31.975,-48.765L31.975,-40.266L9.543,-40.266L9.543,-28.911L30.232,-28.911L30.232,-20.412L9.543,-20.412L9.543,-8.499L32.323,-8.499L32.323,0L0,0L0,-48.765Z" style="fill:rgb(71,202,176);fill-rule:nonzero;"/>
            </g>
            <g transform="matrix(1.66772,0,0,3.71205,460.781,1119.09)">
                <path d="M0,16.021L7.663,16.021L7.663,29.955C6.177,31.023 4.284,31.86 1.986,32.462C-0.312,33.065 -2.671,33.368 -5.085,33.368C-8.15,33.368 -11.064,32.916 -13.828,32.009C-16.592,31.104 -19.018,29.641 -21.107,27.621C-23.197,25.601 -24.869,22.978 -26.123,19.75C-27.377,16.522 -28.004,12.609 -28.004,8.01C-28.004,3.228 -27.297,-0.779 -25.88,-4.007C-24.463,-7.234 -22.641,-9.833 -20.41,-11.809C-18.182,-13.782 -15.698,-15.198 -12.957,-16.058C-10.217,-16.917 -7.522,-17.347 -4.876,-17.347C-2.089,-17.347 0.268,-17.114 2.195,-16.651C4.121,-16.185 5.713,-15.651 6.967,-15.048L6.967,-0.558L-0.696,-0.558L-0.696,-8.5C-2.137,-8.732 -3.622,-8.848 -5.154,-8.848C-6.966,-8.848 -8.649,-8.51 -10.206,-7.838C-11.762,-7.165 -13.12,-6.131 -14.281,-4.738C-15.441,-3.344 -16.348,-1.591 -16.998,0.521C-17.648,2.635 -17.973,5.132 -17.973,8.01C-17.973,10.518 -17.671,12.806 -17.067,14.873C-16.464,16.939 -15.581,18.715 -14.42,20.203C-13.26,21.689 -11.842,22.838 -10.171,23.65C-8.499,24.463 -6.595,24.869 -4.459,24.869C-2.926,24.869 -1.439,24.729 0,24.452L0,16.021Z" style="fill:white;fill-rule:nonzero;"/>
            </g>
            <g transform="matrix(1.66772,0,0,3.71205,532.499,1134.08)">
                <path d="M0,7.941L-15.744,7.941L-15.744,28.353L-25.287,28.353L-25.287,-20.412L-15.744,-20.412L-15.744,-0.558L0,-0.558L0,-20.412L9.544,-20.412L9.544,28.353L0,28.353L0,7.941Z" style="fill:white;fill-rule:nonzero;"/>
            </g>
            <g transform="matrix(1.66772,0,0,3.71205,565.439,1235.71)">
                <path d="M0,-48.765L31.975,-48.765L31.975,-40.266L9.543,-40.266L9.543,-28.911L30.232,-28.911L30.232,-20.412L9.543,-20.412L9.543,-8.499L32.323,-8.499L32.323,0L0,0L0,-48.765Z" style="fill:white;fill-rule:nonzero;"/>
            </g>
            <g transform="matrix(1.66772,0,0,3.71205,638.533,1235.66)">
                <path d="M0,-48.765L30.93,-48.765L30.93,-40.266L9.543,-40.266L9.543,-28.214L29.397,-28.214L29.397,-19.715L9.543,-19.715L9.543,0L0,0L0,-48.765Z" style="fill:white;fill-rule:nonzero;"/>
            </g>
            <g transform="matrix(1.66772,0,0,3.71205,701.012,1117.53)">
                <path d="M0,16.859L7.662,16.859L7.662,23.755C7.802,23.802 7.941,23.85 8.081,23.895C9.149,24.36 10.32,24.743 11.6,25.044C12.876,25.346 14.234,25.497 15.675,25.497C18.274,25.497 20.295,24.974 21.735,23.929C23.174,22.885 23.895,21.48 23.895,19.714C23.895,18.137 23.303,16.859 22.118,15.883C20.934,14.909 19.471,14.049 17.729,13.306C15.988,12.563 14.083,11.82 12.017,11.077C9.95,10.335 8.046,9.394 6.304,8.255C4.563,7.119 3.101,5.69 1.915,3.971C0.731,2.254 0.14,0.024 0.14,-2.716C0.14,-4.807 0.546,-6.722 1.358,-8.463C2.171,-10.205 3.31,-11.703 4.771,-12.957C6.234,-14.211 7.987,-15.186 10.032,-15.883C12.075,-16.579 14.352,-16.928 16.858,-16.928C19.691,-16.928 22.478,-16.672 25.218,-16.162C27.959,-15.65 30.14,-14.953 31.768,-14.072L31.768,0.07L24.104,0.07L24.104,-7.663C23.964,-7.663 23.825,-7.686 23.686,-7.733C22.663,-8.01 21.562,-8.231 20.377,-8.394C19.192,-8.556 18.02,-8.638 16.858,-8.638C14.63,-8.638 12.876,-8.196 11.6,-7.315C10.32,-6.432 9.684,-5.247 9.684,-3.761C9.684,-2.228 10.276,-0.975 11.46,0.001C12.645,0.975 14.107,1.858 15.849,2.647C17.591,3.438 19.494,4.227 21.562,5.015C23.627,5.806 25.532,6.77 27.273,7.907C29.016,9.046 30.478,10.474 31.663,12.191C32.847,13.911 33.438,16.069 33.438,18.671C33.438,21.178 32.974,23.373 32.045,25.254C31.116,27.134 29.816,28.713 28.145,29.991C26.472,31.268 24.497,32.219 22.223,32.846C19.946,33.474 17.486,33.787 14.838,33.787C13.072,33.787 11.437,33.647 9.928,33.37C8.417,33.09 7.023,32.742 5.748,32.324C4.469,31.907 3.344,31.466 2.368,31.001C1.394,30.537 0.603,30.141 0,29.816L0,16.859Z" style="fill:white;fill-rule:nonzero;"/>
            </g>
            <g transform="matrix(1.66772,0,0,3.71205,57.8218,1175.42)">
                <path d="M0,-79.136L0,-56.826C0,-50.687 -4.994,-45.694 -11.133,-45.694L-11.133,-33.443C-4.994,-33.443 0,-28.449 0,-22.31L0,-0.001C0,12.894 10.489,23.383 23.383,23.383L23.383,11.133C17.244,11.133 12.25,6.138 12.25,-0.001L12.25,-22.31C12.25,-29.137 9.309,-35.29 4.627,-39.568C9.309,-43.847 12.25,-49.999 12.25,-56.826L12.25,-79.136C12.25,-85.275 17.244,-90.269 23.383,-90.269L23.383,-102.519C10.489,-102.519 0,-92.03 0,-79.136" style="fill:rgb(71,202,176);fill-rule:nonzero;"/>
            </g>
            <g transform="matrix(1.66772,0,0,3.71205,383.412,1092.6)">
                <path d="M0,-34.516L0,-56.826C0,-69.72 -10.489,-80.209 -23.383,-80.209L-23.383,-67.959C-17.244,-67.959 -12.25,-62.965 -12.25,-56.826L-12.25,-34.516C-12.25,-27.689 -9.309,-21.537 -4.627,-17.258C-9.309,-12.98 -12.25,-6.828 -12.25,0L-12.25,22.309C-12.25,28.448 -17.244,33.443 -23.383,33.443L-23.383,45.693C-10.489,45.693 0,35.204 0,22.309L0,0C0,-6.139 4.994,-11.133 11.133,-11.133L11.133,-23.384C4.994,-23.384 0,-28.377 0,-34.516" style="fill:rgb(71,202,176);fill-rule:nonzero;"/>
            </g>
            <g transform="matrix(1.66772,0,0,3.71205,220.057,1037.98)">
                <path d="M0,59.809C27.495,59.809 39.947,49.879 39.947,46.865L39.947,10.2C35.293,8.996 32.002,7.162 28.758,4.863C27.119,5.201 25.396,5.379 23.631,5.395L23.263,5.396C17.361,5.396 12.51,4.167 8.837,1.744C4.625,3.359 -0.042,3.943 -4.966,3.492C-9.716,3.052 -13.741,1.879 -16.942,0C-20.395,4.996 -25.515,8.68 -31.969,11.021C-34.488,11.935 -37.331,12.749 -39.947,12.895L-39.947,46.865C-39.947,49.879 -27.495,59.809 0,59.809" style="fill:white;fill-rule:nonzero;"/>
            </g>
            <g transform="matrix(1.66772,0,0,3.71205,331.625,889.972)">
                <path d="M0,19.998C-0.711,7.984 -9.027,1.697 -14.477,0.572C-14.711,5.968 -17.432,10.152 -20.426,11.929C-20.39,11.81 -16.891,-0.041 -23.714,-7.107C-29.979,-13.596 -38.002,-12.932 -41.027,-12.385C-40.971,-9.154 -42.188,-5.864 -44.197,-3.939C-44.197,-8.706 -46.906,-15.873 -51.44,-19.617C-55.132,-22.666 -61.087,-26.462 -71.126,-25.31C-87.218,-23.463 -91.295,-8.835 -91.842,-4.375L-95.374,-5.928C-98.689,-7.4 -102.218,-8.127 -105.746,-8.127C-110.741,-8.127 -116.684,-6.723 -121.141,-3.966C-128.606,0.653 -133.294,7.631 -133.888,16.971C-134.539,27.226 -130.397,34.98 -122.604,40.881C-116.831,45.25 -108.858,46.46 -100.713,44.189C-93.854,42.275 -88.91,37.904 -86.791,31.884C-84.926,26.585 -84.833,19.49 -86.564,14.628C-81.403,16.978 -78.286,26.727 -80.839,33.978C-80.87,34.067 -80.903,34.154 -80.937,34.241C-79.159,35.341 -76.118,36.634 -71.283,37.081C-64.77,37.685 -58.939,36.067 -54.875,32.519C-49.682,27.988 -46.649,21.553 -46.337,14.401C-42.568,21.044 -44.987,32.266 -50.727,37.273C-51.017,37.526 -51.316,37.775 -51.622,38.016C-49.45,38.669 -46.658,38.99 -43.323,38.958C-31.562,38.855 -24.957,28.891 -23.213,25.839C-22.589,29.823 -24.229,37.347 -30.28,41.461C-25.089,43.87 -16.651,43.363 -10.535,40.358C-2.754,36.536 0.475,28.02 0,19.998" style="fill:white;fill-rule:nonzero;"/>
            </g>
            <g transform="matrix(1.66772,0,0,3.71205,220.057,1037.98)">
                <path d="M0,59.809C27.495,59.809 39.947,49.879 39.947,46.865L39.947,10.2C35.293,8.996 32.002,7.162 28.758,4.863C27.119,5.201 25.396,5.379 23.631,5.395L23.263,5.396C17.361,5.396 12.51,4.167 8.837,1.744C4.625,3.359 -0.042,3.943 -4.966,3.492C-9.716,3.052 -13.741,1.879 -16.942,0C-20.395,4.996 -25.515,8.68 -31.969,11.021C-34.488,11.935 -37.331,12.749 -39.947,12.895L-39.947,46.865C-39.947,49.879 -27.495,59.809 0,59.809" style="fill:white;fill-rule:nonzero;"/>
            </g>
            <g transform="matrix(1.66772,0,0,3.71205,331.625,889.972)">
                <path d="M0,19.998C-0.711,7.984 -9.027,1.697 -14.477,0.572C-14.711,5.968 -17.432,10.152 -20.426,11.929C-20.39,11.81 -16.891,-0.041 -23.714,-7.107C-29.979,-13.596 -38.002,-12.932 -41.027,-12.385C-40.971,-9.154 -42.188,-5.864 -44.197,-3.939C-44.197,-8.706 -46.906,-15.873 -51.44,-19.617C-55.132,-22.666 -61.087,-26.462 -71.126,-25.31C-87.218,-23.463 -91.295,-8.835 -91.842,-4.375L-95.374,-5.928C-98.689,-7.4 -102.218,-8.127 -105.746,-8.127C-110.741,-8.127 -116.684,-6.723 -121.141,-3.966C-128.606,0.653 -133.294,7.631 -133.888,16.971C-134.539,27.226 -130.397,34.98 -122.604,40.881C-116.831,45.25 -108.858,46.46 -100.713,44.189C-93.854,42.275 -88.91,37.904 -86.791,31.884C-84.926,26.585 -84.833,19.49 -86.564,14.628C-81.403,16.978 -78.286,26.727 -80.839,33.978C-80.87,34.067 -80.903,34.154 -80.937,34.241C-79.159,35.341 -76.118,36.634 -71.283,37.081C-64.77,37.685 -58.939,36.067 -54.875,32.519C-49.682,27.988 -46.649,21.553 -46.337,14.401C-42.568,21.044 -44.987,32.266 -50.727,37.273C-51.017,37.526 -51.316,37.775 -51.622,38.016C-49.45,38.669 -46.658,38.99 -43.323,38.958C-31.562,38.855 -24.957,28.891 -23.213,25.839C-22.589,29.823 -24.229,37.347 -30.28,41.461C-25.089,43.87 -16.651,43.363 -10.535,40.358C-2.754,36.536 0.475,28.02 0,19.998" style="fill:white;fill-rule:nonzero;"/>
            </g>
        </g>
    </g>
</svg>
