<?xml version="1.0" encoding="UTF-8" standalone="no"?>
<!DOCTYPE svg PUBLIC "-//W3C//DTD SVG 1.1//EN" "http://www.w3.org/Graphics/SVG/1.1/DTD/svg11.dtd">
<svg width="100%" height="100%" viewBox="0 0 230 228" version="1.1" xmlns="http://www.w3.org/2000/svg" xmlns:xlink="http://www.w3.org/1999/xlink" xml:space="preserve" xmlns:serif="http://www.serif.com/" style="fill-rule:evenodd;clip-rule:evenodd;stroke-linejoin:round;stroke-miterlimit:2;">
    <g transform="matrix(1,0,0,1,-1897,-177)">
        <g id="Page-1" serif:id="Page 1" transform="matrix(3.5053,0,0,3.13556,1051.57,0)">
            <rect x="0" y="0" width="679" height="459" style="fill:none;"/>
            <g id="Layer-2" serif:id="Layer 2">
            </g>
            <g id="Layer-1" serif:id="Layer 1">
            </g>
            <g transform="matrix(0.0966348,0,0,0.159809,241.003,55.9832)">
                <!-- <rect x="0" y="0" width="679" height="459" style="fill:rgb(30,30,30);"/> -->
            </g>
            <g transform="matrix(0.285283,0,0,0.318922,245.964,103.993)">
                <path d="M0,-79.136L0,-56.826C0,-50.687 -4.994,-45.694 -11.133,-45.694L-11.133,-33.443C-4.994,-33.443 0,-28.449 0,-22.31L0,-0.001C0,12.894 10.489,23.383 23.383,23.383L23.383,11.133C17.244,11.133 12.25,6.138 12.25,-0.001L12.25,-22.31C12.25,-29.137 9.309,-35.29 4.627,-39.568C9.309,-43.847 12.25,-49.999 12.25,-56.826L12.25,-79.136C12.25,-85.275 17.244,-90.269 23.383,-90.269L23.383,-102.519C10.489,-102.519 0,-92.03 0,-79.136" style="fill:rgb(71,202,176);fill-rule:nonzero;"/>
            </g>
            <g transform="matrix(0.285283,0,0,0.318922,301.66,96.8779)">
                <path d="M0,-34.516L0,-56.826C0,-69.72 -10.489,-80.209 -23.383,-80.209L-23.383,-67.959C-17.244,-67.959 -12.25,-62.965 -12.25,-56.826L-12.25,-34.516C-12.25,-27.689 -9.309,-21.537 -4.627,-17.258C-9.309,-12.98 -12.25,-6.828 -12.25,0L-12.25,22.309C-12.25,28.448 -17.244,33.443 -23.383,33.443L-23.383,45.693C-10.489,45.693 0,35.204 0,22.309L0,0C0,-6.139 4.994,-11.133 11.133,-11.133L11.133,-23.384C4.994,-23.384 0,-28.377 0,-34.516" style="fill:rgb(71,202,176);fill-rule:nonzero;"/>
            </g>
            <g transform="matrix(0.312539,0,0,0.349392,274.344,92.3657)">
                <path d="M0,59.809C27.495,59.809 39.947,49.879 39.947,46.865L39.947,10.2C35.293,8.996 32.002,7.162 28.758,4.863C27.119,5.201 25.396,5.379 23.631,5.395L23.263,5.396C17.361,5.396 12.51,4.167 8.837,1.744C4.625,3.359 -0.042,3.943 -4.966,3.492C-9.716,3.052 -13.741,1.879 -16.942,0C-20.395,4.996 -25.515,8.68 -31.969,11.021C-34.488,11.935 -37.331,12.749 -39.947,12.895L-39.947,46.865C-39.947,49.879 -27.495,59.809 0,59.809" style="fill:white;fill-rule:nonzero;"/>
            </g>
            <g transform="matrix(0.312539,0,0,0.349392,295.253,78.4345)">
                <path d="M0,19.998C-0.711,7.984 -9.027,1.697 -14.477,0.572C-14.711,5.968 -17.432,10.152 -20.426,11.929C-20.39,11.81 -16.891,-0.041 -23.714,-7.107C-29.979,-13.596 -38.002,-12.932 -41.027,-12.385C-40.971,-9.154 -42.188,-5.864 -44.197,-3.939C-44.197,-8.706 -46.906,-15.873 -51.44,-19.617C-55.132,-22.666 -61.087,-26.462 -71.126,-25.31C-87.218,-23.463 -91.295,-8.835 -91.842,-4.375L-95.374,-5.928C-98.689,-7.4 -102.218,-8.127 -105.746,-8.127C-110.741,-8.127 -116.684,-6.723 -121.141,-3.966C-128.606,0.653 -133.294,7.631 -133.888,16.971C-134.539,27.226 -130.397,34.98 -122.604,40.881C-116.831,45.25 -108.858,46.46 -100.713,44.189C-93.854,42.275 -88.91,37.904 -86.791,31.884C-84.926,26.585 -84.833,19.49 -86.564,14.628C-81.403,16.978 -78.286,26.727 -80.839,33.978C-80.87,34.067 -80.903,34.154 -80.937,34.241C-79.159,35.341 -76.118,36.634 -71.283,37.081C-64.77,37.685 -58.939,36.067 -54.875,32.519C-49.682,27.988 -46.649,21.553 -46.337,14.401C-42.568,21.044 -44.987,32.266 -50.727,37.273C-51.017,37.526 -51.316,37.775 -51.622,38.016C-49.45,38.669 -46.658,38.99 -43.323,38.958C-31.562,38.855 -24.957,28.891 -23.213,25.839C-22.589,29.823 -24.229,37.347 -30.28,41.461C-25.089,43.87 -16.651,43.363 -10.535,40.358C-2.754,36.536 0.475,28.02 0,19.998" style="fill:white;fill-rule:nonzero;"/>
            </g>
        </g>
    </g>
</svg>
