<svg
  version="1.1"
  xmlns="http://www.w3.org/2000/svg"
  viewBox="0 0 64 64"
  class="icon"
>
  <title>Google Play Music</title>
  <path d="M56.753 30.639c-0.010-0.017-0.019-0.035-0.029-0.052-0.018-0.030-0.037-0.061-0.056-0.091-0.374-0.601-0.981-1.161-1.821-1.632l-4.201-2.387c0.035 0.125 0.069 0.25 0.102 0.376 0.432 1.649 0.663 3.378 0.663 5.161 0 0.033-0.002 0.066-0.002 0.1-0.009 1.861-0.259 3.69-0.752 5.399l4.19-2.381c2.151-1.21 2.785-2.956 1.907-4.494z"></path>
  <path d="M10.684 32.121c-0-0.035-0.001-0.071-0.001-0.106 0-9.272 6.223-17.112 14.714-19.566 0.125-0.036 0.251-0.070 0.377-0.104l-13.372-7.598c-0.081-0.046-0.162-0.087-0.242-0.128 0.061 0.031 0.121 0.062 0.182 0.095-0.863-0.484-1.678-0.715-2.404-0.715-1.82-0-3.072 1.442-3.072 3.929v0.318c0-0.274 0.017-0.533 0.047-0.78-0.010 0.15-0.015 0.304-0.015 0.462v48.141c0 1.4 0.414 2.482 1.082 3.15 1.018 0.986 2.609 1.082 4.423 0.032l13.339-7.58c-8.641-2.322-15.008-10.188-15.056-19.551zM9.952 4.022c0 0 0 0 0 0s0 0 0 0c0.038 0 0.077 0.003 0.116 0.004-0.051-0.002-0.101-0.003-0.151-0.003 0.012-0 0.023-0.002 0.035-0.002zM12.057 4.566c-0.109-0.054-0.218-0.104-0.326-0.149 0.108 0.045 0.216 0.095 0.326 0.149zM11.696 4.404c-0.096-0.040-0.191-0.077-0.285-0.111 0.094 0.033 0.189 0.071 0.285 0.111zM11.302 4.258c-0.069-0.023-0.137-0.046-0.205-0.065 0.068 0.019 0.136 0.042 0.205 0.065zM10.973 4.161c-0.061-0.016-0.123-0.032-0.183-0.045 0.060 0.013 0.122 0.029 0.183 0.045zM10.661 4.092c-0.057-0.011-0.114-0.022-0.171-0.030 0.056 0.008 0.114 0.019 0.171 0.030zM10.36 4.048c-0.054-0.006-0.108-0.012-0.161-0.016 0.053 0.003 0.107 0.010 0.161 0.016zM7.982 4.775c0.019-0.018 0.040-0.034 0.060-0.052-0.021 0.019-0.043 0.036-0.064 0.056 0.001-0.001 0.003-0.003 0.004-0.004zM9.764 4.030c-0.044 0.003-0.088 0.004-0.13 0.008 0.043-0.004 0.087-0.006 0.13-0.008zM9.485 4.058c-0.042 0.006-0.084 0.011-0.125 0.019 0.041-0.008 0.083-0.013 0.125-0.019zM9.217 4.109c-0.040 0.010-0.080 0.018-0.12 0.029 0.039-0.011 0.080-0.019 0.12-0.029zM8.96 4.183c-0.037 0.013-0.076 0.024-0.113 0.039 0.037-0.014 0.075-0.026 0.113-0.039zM8.715 4.28c-0.035 0.016-0.071 0.030-0.105 0.048 0.034-0.017 0.070-0.032 0.105-0.048zM8.482 4.401c-0.032 0.019-0.065 0.035-0.096 0.055 0.031-0.020 0.064-0.037 0.096-0.055zM8.259 4.546c-0.027 0.020-0.056 0.038-0.083 0.059 0.027-0.021 0.055-0.040 0.083-0.059z"></path>
  <path d="M12.391 4.742c-0.003-0.002-0.007-0.004-0.010-0.005s-0.005-0.003-0.007-0.004c-0.011-0.006-0.022-0.011-0.033-0.018 0.020 0.011 0.040 0.021 0.060 0.032-0.003-0.002-0.006-0.004-0.009-0.005z"></path>
  <path d="M31.046 19.288c-7.029 0-12.727 5.698-12.727 12.727s5.698 12.727 12.727 12.727c7.029 0 12.727-5.698 12.727-12.727s-5.698-12.727-12.727-12.727zM35.501 28.515h-2.864v7.191c0 1.623-1.432 2.959-3.086 2.959-1.623 0-2.959-1.305-2.959-2.959 0-1.623 1.305-2.959 2.959-2.959 0.541 0 1.050 0.159 1.495 0.414v-7.827h4.454v3.182z"></path>
</svg>
