<svg
  version="1.1"
  xmlns="http://www.w3.org/2000/svg"
  viewBox="0 0 64 64"
  class="icon"
>
  <title>Apple Podcasts</title>
  <path d="M50.667 4h-37.334c-5.159 0-9.333 4.166-9.333 9.298v37.211c0 5.133 4.175 9.299 9.333 9.299h37.334c5.149 0 9.333-4.166 9.333-9.299v-37.211c0-5.132-4.183-9.298-9.333-9.298zM32.264 53.269c0 0-2.988 0-4.201-7.022-0.308-1.793-0.501-4.034-0.501-6.856 0-0.324 0.035-0.64 0.096-0.939l0 0c0.439-2.137 2.338-3.745 4.605-3.745 2.594 0 4.702 2.102 4.702 4.684 0 0.58-0.007 1.134-0.025 1.662h-0.001c-0.053 1.862-0.202 3.436-0.403 4.771h-0c-1.169 7.446-4.271 7.446-4.271 7.446zM25.399 40.173v0.747c-1.881-1.151-3.436-2.813-4.491-4.737-0.615-1.099-1.046-2.286-1.292-3.515-0.29-1.372-0.343-2.786-0.159-4.175 0.159-1.265 0.51-2.496 1.020-3.621 0.624-1.389 1.538-2.68 2.61-3.779 1.099-1.099 2.391-1.977 3.788-2.593 1.565-0.694 3.252-1.072 4.948-1.125 1.723-0.026 3.445 0.264 5.028 0.879 1.45 0.563 2.768 1.397 3.919 2.443 1.135 1.038 2.1 2.268 2.804 3.638 0.562 1.125 0.993 2.329 1.203 3.56 0.22 1.292 0.274 2.601 0.080 3.893-0.158 1.257-0.501 2.487-1.045 3.638-1.045 2.33-2.848 4.343-5.053 5.652l0.203-0.184 0.017-0.835c0-0.56 0-1.124-0.079-1.678-0.026-0.22-0.077-0.404-0.131-0.615 0.994-0.809 1.827-1.828 2.443-2.98 0.458-0.852 0.809-1.792 0.992-2.759 0.22-1.072 0.274-2.197 0.116-3.321-0.132-0.984-0.414-1.952-0.809-2.865-0.509-1.099-1.214-2.11-2.065-2.971-0.898-0.852-1.89-1.555-3.016-2.065-1.238-0.536-2.583-0.853-3.927-0.879-1.346-0.027-2.717 0.211-3.982 0.694-1.125 0.457-2.171 1.099-3.085 1.925-0.914 0.834-1.67 1.8-2.206 2.891-0.457 0.887-0.782 1.828-0.967 2.822-0.193 1.010-0.22 2.056-0.088 3.076 0.141 0.992 0.404 1.959 0.808 2.863 0.615 1.372 1.529 2.577 2.663 3.57l-0.044 0.209-0-0-0.123 0.51c-0.106 0.562-0.079 1.099-0.079 1.688zM27.518 28.599c0-2.593 2.127-4.72 4.746-4.72v-0.035c2.618 0 4.737 2.118 4.737 4.728 0 2.628-2.118 4.745-4.737 4.745s-4.747-2.117-4.746-4.719zM51.563 33.126c-0.299 1.869-0.914 3.725-1.748 5.439-1.881 3.77-5 6.882-8.789 8.753-0.941 0.458-1.933 0.862-2.952 1.178l-0.045 0.045c0.211-0.791 0.369-1.59 0.493-2.399v-0.018l0.096-0.62c0.202-0.089 0.414-0.179 0.614-0.274 3.27-1.477 6.022-3.99 7.771-7.11 0.798-1.424 1.387-2.972 1.739-4.581 0.404-1.792 0.51-3.665 0.299-5.493-0.192-1.713-0.651-3.392-1.378-4.965-0.826-1.846-1.988-3.534-3.436-4.956-1.478-1.468-3.225-2.681-5.133-3.507-1.96-0.887-4.114-1.345-6.293-1.397-2.18-0.053-4.351 0.299-6.398 1.072-1.96 0.748-3.761 1.855-5.317 3.269-1.477 1.336-2.742 2.971-3.656 4.763-0.782 1.529-1.318 3.164-1.617 4.852-0.29 1.74-0.29 3.542-0.027 5.308 0.246 1.555 0.703 3.076 1.371 4.526 1.591 3.347 4.28 6.133 7.611 7.82 0.404 0.185 0.8 0.379 1.239 0.563 0.026 0.21 0.079 0.456 0.105 0.695 0.027 0.166 0.053 0.333 0.097 0.499h0c0.105 0.615 0.237 1.247 0.387 1.862-0.73-0.246-1.45-0.518-2.155-0.835-3.849-1.74-7.092-4.745-9.114-8.463-0.914-1.687-1.556-3.48-1.96-5.361-0.457-2.066-0.544-4.236-0.273-6.346 0.273-1.986 0.835-3.937 1.67-5.738 0.993-2.11 2.39-4.070 4.060-5.704 1.635-1.626 3.682-2.997 5.915-3.938 2.32-0.966 4.825-1.493 7.338-1.52 2.522-0.027 5.045 0.421 7.4 1.345 2.26 0.887 4.341 2.206 6.126 3.858 1.722 1.59 3.138 3.497 4.193 5.59 0.888 1.766 1.502 3.699 1.792 5.651 0.326 2.038 0.326 4.122-0.026 6.135z"></path>
</svg>
