<svg
  version="1.1"
  xmlns="http://www.w3.org/2000/svg"
  viewBox="0 0 64 64"
  class="icon"
>
  <title>Pocket Casts</title>
  <path d="M32 4.5c-15.464 0-28 12.536-28 28s12.536 28 28 28 28-12.536 28-28-12.536-28-28-28zM43.342 31.497c0 0.283-0.229 0.512-0.512 0.511h-3.329c-0.266-0.003-0.485-0.209-0.51-0.474-0.248-3.677-3.303-6.531-6.989-6.531-0.004 0-0.010 0-0.015 0-3.864 0.003-6.994 3.14-6.991 7.005 0.001 3.685 2.855 6.74 6.532 6.99 0.266 0.022 0.471 0.243 0.474 0.51v3.327c0 0.008 0 0.016 0 0.023-0.013 0.282-0.252 0.501-0.534 0.488-6.021-0.279-10.818-5.25-10.818-11.339 0-0.017 0-0.032 0-0.049 0.013-6.255 5.096-11.317 11.352-11.305 6.091 0 11.061 4.797 11.338 10.821 0 0.008 0 0.015 0 0.023zM51.633 31.493c0 0.282-0.228 0.511-0.512 0.511h-4.196c-0.274 0-0.501-0.216-0.51-0.489-0.26-7.738-6.613-13.931-14.414-13.931-7.916 0-14.421 6.505-14.421 14.421 0 7.802 6.192 14.155 13.931 14.414 0.275 0.010 0.492 0.236 0.491 0.51v4.195c0 0.006 0 0.011 0 0.016-0.008 0.283-0.245 0.505-0.526 0.496-10.602-0.279-19.111-8.96-19.111-19.631 0-10.863 8.774-19.636 19.637-19.636 10.669 0 19.351 8.509 19.63 19.11 0 0.006 0 0.010 0 0.016z"></path>
</svg>
