<svg
  version="1.1"
  xmlns="http://www.w3.org/2000/svg"
  viewBox="0 0 64 64"
  class="icon"
>
  <title>Spotify</title>
  <path d="M48.589 28.84c-9.041-5.354-23.962-5.881-32.564-3.247-1.404 0.439-2.809-0.351-3.248-1.756s0.351-2.809 1.755-3.247c9.919-2.984 26.332-2.457 36.778 3.774 1.229 0.702 1.668 2.37 0.878 3.599-0.703 1.229-2.37 1.668-3.599 0.878v0zM48.326 36.828c-0.614 1.053-2.019 1.317-2.984 0.702-7.548-4.652-19.047-5.969-27.912-3.248-1.141 0.351-2.37-0.264-2.721-1.493-0.351-1.141 0.263-2.37 1.492-2.721 10.182-3.072 22.821-1.58 31.511 3.686 0.878 0.702 1.229 2.019 0.614 3.072l-0-0zM44.903 44.464c-0.527 0.79-1.58 1.053-2.37 0.614-6.583-4.038-14.834-4.915-24.665-2.721-0.966 0.175-1.843-0.351-2.107-1.317-0.175-0.965 0.351-1.843 1.317-2.106 10.709-2.458 19.837-1.404 27.21 3.16 0.878 0.439 1.141 1.492 0.614 2.37l0-0zM32 4c-15.449 0-28 12.552-28 28s12.552 28 28 28c15.448 0 27.999-12.552 27.999-28 0.088-15.448-12.464-28-28-28z"></path>
</svg>
