<svg
  version="1.1"
  xmlns="http://www.w3.org/2000/svg"
  viewBox="0 0 64 64"
  class="icon"
>
  <title>Overcast</title>
  <path d="M32 60.5c-15.488 0-28-12.513-28-28s12.512-28 28-28c15.487 0 28 12.512 28 28s-12.513 28-28 28zM32 49.388l2.1-2.1-2.1-8.050-2.1 8.050 2.1 2.1zM29.288 49.3l-1.050 3.938 2.45-2.45-1.4-1.487zM34.712 49.3l-1.4 1.4 2.45 2.45-1.050-3.85zM36.638 56.563l-4.638-4.725-4.637 4.638c1.488 0.263 3.063 0.438 4.638 0.438s3.15 0 4.637-0.35v0zM32 8c-13.563 0-24.5 10.938-24.5 24.5 0 10.763 6.912 19.862 16.45 23.1l5.25-19.512c-1.137-0.788-1.837-2.188-1.837-3.763 0-2.537 2.1-4.637 4.637-4.637s4.638 2.1 4.638 4.638c0 1.487-0.7 2.8-1.837 3.763l5.25 19.512c9.537-3.238 16.45-12.338 16.45-23.1 0-13.563-10.938-24.5-24.5-24.5zM48.013 44.663c-0.612 0.7-1.663 0.962-2.45 0.35s-0.962-1.663-0.35-2.362c0 0 3.15-4.2 3.15-10.15s-3.15-10.15-3.15-10.15c-0.612-0.7-0.438-1.75 0.35-2.362s1.837-0.35 2.45 0.35c0.263 0.262 3.85 4.987 3.85 12.163s-3.675 11.9-3.85 12.162zM39.438 40.112c-0.7-0.7-0.612-2.013 0.087-2.712 0 0 1.75-1.837 1.75-4.9s-1.75-4.813-1.75-4.9c-0.7-0.7-0.7-1.837-0.087-2.712 0.7-0.788 1.75-0.788 2.45-0.087 0.087 0.087 2.888 3.063 2.888 7.7s-2.8 7.612-2.888 7.7c-0.7 0.7-1.75 0.612-2.45-0.087zM24.563 40.112c-0.7 0.7-1.75 0.788-2.45 0.087-0.087-0.263-2.887-3.063-2.887-7.7s2.8-7.438 2.887-7.7c0.7-0.7 1.838-0.7 2.45 0.088 0.7 0.7 0.612 2.013-0.087 2.712 0 0.087-1.75 1.837-1.75 4.9s1.75 4.9 1.75 4.9c0.613 0.7 0.788 1.837 0.087 2.712zM18.438 45.013c-0.788 0.612-1.837 0.35-2.45-0.35-0.262-0.263-3.85-4.987-3.85-12.163s3.588-11.9 3.85-12.163c0.613-0.7 1.663-0.962 2.45-0.35s0.962 1.663 0.35 2.362c0 0-3.15 4.2-3.15 10.15s3.15 10.15 3.15 10.15c0.613 0.7 0.35 1.75-0.35 2.363v0z"></path>
</svg>
