<svg
  version="1.1"
  xmlns="http://www.w3.org/2000/svg"
  fill="white"
  viewBox="0 0 64 64"
  class="icon"
>
  <title>Google Podcasts</title>
  <path d="M12.897 33.874c0 1.383-1.427 2.959-3.187 2.959v0c-1.76 0-3.187-1.576-3.187-2.959l-0.015-3.748c0-1.383 1.427-2.959 3.187-2.959v0c1.76 0 3.187 1.576 3.187 2.959l0.015 3.748z"></path>
  <path d="M23.807 31.317c0 1.383-1.427 2.959-3.186 2.959v0c-1.76 0-3.187-1.576-3.187-2.959l-0.015-11.486c0-1.383 1.427-2.959 3.186-2.959v0c1.76 0 3.187 1.576 3.187 2.959l0.015 11.486z"></path>
  <path d="M23.807 44.169c0 1.383-1.427 2.959-3.186 2.959v0c-1.76 0-3.187-1.576-3.187-2.959l-0.015-3.748c0-1.383 1.427-2.959 3.186-2.959v0c1.76 0 3.187 1.576 3.187 2.959l0.015 3.748z"></path>
  <path d="M35.192 54.533c0 1.383-1.427 2.959-3.187 2.959v0c-1.76 0-3.186-1.576-3.186-2.959l-0.015-3.748c0-1.383 1.427-2.959 3.186-2.959v0c1.76 0 3.187 1.576 3.187 2.959l0.015 3.748z"></path>
  <path d="M35.192 13.214c0 1.383-1.427 2.959-3.187 2.959v0c-1.76 0-3.186-1.576-3.186-2.959l-0.015-3.748c0-1.383 1.427-2.959 3.186-2.959v0c1.76 0 3.187 1.576 3.187 2.959l0.015 3.748z"></path>
  <path d="M46.568 23.578c0 1.383-1.427 2.959-3.187 2.959v0c-1.76 0-3.187-1.576-3.187-2.959l-0.015-3.747c0-1.383 1.427-2.959 3.187-2.959v0c1.76 0 3.187 1.576 3.187 2.959l0.015 3.747z"></path>
  <path d="M57.508 33.699c0 1.383-1.427 2.959-3.187 2.959v0c-1.76 0-3.187-1.576-3.187-2.959l-0.015-3.747c0-1.383 1.427-2.959 3.187-2.959v0c1.76 0 3.187 1.576 3.187 2.959l0.015 3.747z"></path>
  <path d="M46.568 44.291c0 1.383-1.427 2.959-3.187 2.959v0c-1.76 0-3.187-1.576-3.187-2.959l-0.015-11.608c0-1.383 1.427-2.959 3.187-2.959v0c1.76 0 3.187 1.576 3.187 2.959l0.015 11.608z"></path>
  <path d="M35.192 41.56c0 1.383-1.427 2.959-3.187 2.959v0c-1.76 0-3.186-1.576-3.186-2.959l-0.015-18.997c0-1.383 1.427-2.959 3.186-2.959v0c1.76 0 3.187 1.576 3.187 2.959l0.015 18.997z"></path>
</svg>
