<?xml version="1.0" encoding="iso-8859-1"?>
<!-- Generator: Adobe Illustrator 19.0.0, SVG Export Plug-In . SVG Version: 6.00 Build 0)  -->
<svg version="1.1" id="Capa_1" xmlns="http://www.w3.org/2000/svg" xmlns:xlink="http://www.w3.org/1999/xlink" x="0px" y="0px"
	 viewBox="0 0 490.667 490.667" style="enable-background:new 0 0 490.667 490.667;" xml:space="preserve">
<circle style="fill:#64B5F6;" cx="245.333" cy="245.333" r="234.667"/>
<g>
	<path style="fill:#1976D2;" d="M245.333,490.667C109.839,490.667,0,380.827,0,245.333S109.839,0,245.333,0
		s245.333,109.839,245.333,245.333C490.514,380.764,380.764,490.514,245.333,490.667z M245.333,21.333
		c-123.712,0-224,100.288-224,224s100.288,224,224,224s224-100.288,224-224C469.204,121.675,368.992,21.463,245.333,21.333z"/>
	<path style="fill:#1976D2;" d="M245.333,490.667c-77.76,0-138.667-107.776-138.667-245.333S167.573,0,245.333,0
		S384,107.776,384,245.333S323.093,490.667,245.333,490.667z M245.333,21.333c-63.595,0-117.333,102.592-117.333,224
		s53.739,224,117.333,224s117.333-102.592,117.333-224S308.928,21.333,245.333,21.333z"/>
	<path style="fill:#1976D2;" d="M245.333,490.667c-5.891,0-10.667-4.776-10.667-10.667V10.667C234.667,4.776,239.442,0,245.333,0
		C251.224,0,256,4.776,256,10.667V480C256,485.891,251.224,490.667,245.333,490.667z"/>
	<path style="fill:#1976D2;" d="M480,256H10.667C4.776,256,0,251.224,0,245.333c0-5.891,4.776-10.667,10.667-10.667H480
		c5.891,0,10.667,4.776,10.667,10.667C490.667,251.224,485.891,256,480,256z"/>
	<path style="fill:#1976D2;" d="M437.333,128h-384c-5.891,0-10.667-4.776-10.667-10.667s4.776-10.667,10.667-10.667h384
		c5.891,0,10.667,4.776,10.667,10.667S443.224,128,437.333,128z"/>
	<path style="fill:#1976D2;" d="M437.333,384h-384c-5.891,0-10.667-4.776-10.667-10.667s4.776-10.667,10.667-10.667h384
		c5.891,0,10.667,4.776,10.667,10.667S443.224,384,437.333,384z"/>
</g>
<g>
</g>
<g>
</g>
<g>
</g>
<g>
</g>
<g>
</g>
<g>
</g>
<g>
</g>
<g>
</g>
<g>
</g>
<g>
</g>
<g>
</g>
<g>
</g>
<g>
</g>
<g>
</g>
<g>
</g>
</svg>
